<svg id="Layer_1" enable-background="new 0 0 512 512" height="512" viewBox="0 0 512 512" width="512" xmlns="http://www.w3.org/2000/svg"><path fill="#595959" clip-rule="evenodd" d="m256.001 0c141.384 0 255.999 114.616 255.999 256.002s-114.615 256.002-255.999 256.002c-141.386 0-256.001-114.616-256.001-256.002s114.615-256.002 256.001-256.002zm142.977 143.193h-285.954c78.507 53.857 126.167 86.554 142.976 98.087l71.817-49.271c30.444-20.881 54.156-37.147 71.161-48.816zm-312.978 225.618h340v-214.705c-16.891 11.586-45.031 30.892-84.444 57.932l-78.687 53.979c-2.069 1.418-4.47 2.13-6.87 2.13-2.398 0-4.798-.713-6.869-2.13 0 0-54.382-37.308-163.13-111.91z" fill-rule="evenodd"/></svg>