<svg id="Layer_1" enable-background="new 0 0 512 512" height="512" viewBox="0 0 512 512" width="512" xmlns="http://www.w3.org/2000/svg"><path clip-rule="evenodd" d="m256.003 0c141.376 0 255.997 114.617 255.997 256.002 0 141.382-114.621 255.998-255.997 255.998-141.386 0-256.002-114.616-256.002-255.998 0-141.385 114.616-256.002 256.002-256.002zm142.585 373.445c0-23.164-24.628-42.504-65.452-53.334-4.822 7.505-9.832 14.87-14.968 22.07 36.371 8.085 55.494 22.009 55.494 31.264 0 5.622-7.89 15.228-30.129 23.787-23.18 8.93-54.265 13.843-87.533 13.843-33.264 0-64.352-4.913-87.536-13.843-22.236-8.558-30.13-18.164-30.13-23.787 0-9.305 19.119-23.202 55.486-31.271-5.126-7.186-10.127-14.537-14.94-22.027-11.141 2.968-21.232 6.599-30.018 10.833-29.303 14.122-35.45 30.883-35.45 42.465 0 18.896 16.371 35.605 46.096 47.055 25.973 9.995 60.24 15.5 96.492 15.5 36.251 0 70.522-5.505 96.492-15.5 29.721-11.45 46.096-28.159 46.096-47.055zm-217.869-269.885c-53.401 49.811-32.08 145.19 57.041 255.147 6.201 7.65 12.235 14.855 18.241 21.774 5.973-6.883 11.982-14.055 18.151-21.672 89.186-109.989 110.536-205.405 57.134-255.237-19.697-18.38-47.501-27.572-75.289-27.572-27.792 0-55.576 9.184-75.278 27.56zm142.51 80.516c0-37.07-30.154-67.228-67.228-67.228-37.07 0-67.228 30.159-67.228 67.228 0 37.07 30.158 67.228 67.228 67.228 37.073 0 67.228-30.159 67.228-67.228zm-106.783 0c0 21.811 17.743 39.558 39.554 39.558s39.554-17.747 39.554-39.558c0-21.807-17.743-39.554-39.554-39.554-21.81 0-39.554 17.747-39.554 39.554z" fill-rule="evenodd"/></svg>