<svg id="Layer_1" enable-background="new 0 0 512 512" height="512" viewBox="0 0 512 512" width="512" xmlns="http://www.w3.org/2000/svg"><path fill="#ebebeb" clip-rule="evenodd" d="m256 0c141.381 0 256.002 114.616 256.002 256.002s-114.621 256.002-256.002 256.002-256.002-114.616-256.002-256.002c0-141.386 114.62-256.002 256.002-256.002zm-103.466 93.579h-5.191c-5.68.576-10.875 3.043-14.923 7.093l-18.89 18.893c-13.431 13.433-20.439 31.446-20.01 50.415.433 19.152 8.121 37.773 20.007 52.643 25.914 32.421 52.315 64.709 81.693 94.088s61.666 55.779 94.087 81.693c14.922 11.927 33.606 19.662 52.837 20.009.44.008.881.014 1.322.014 18.626 0 36.027-7.154 49.203-20.327l18.593-18.59c9.654-9.652 9.653-25.385-.001-35.038l-38.543-38.54c-4.692-4.692-10.888-7.224-17.52-7.224-6.631 0-12.828 2.535-17.519 7.226l-20.298 20.302-6.275-1.985c-1.531-.484-2.976-1.238-4.282-2.169-13.112-9.347-26.338-18.692-39.092-28.52-9.275-7.146-18.208-14.584-26.494-22.871-8.286-8.286-15.723-17.218-22.869-26.492-9.827-12.754-19.171-25.978-28.517-39.089-.898-1.26-1.629-2.648-2.119-4.117l-2.12-6.352 20.382-20.39c4.691-4.693 7.229-10.884 7.229-17.518s-2.535-12.827-7.227-17.52l-38.537-38.54c-4.05-4.049-9.248-6.518-14.926-7.094z" fill-rule="evenodd"/></svg>